<svg width="70" height="70" viewBox="0 0 70 70" fill="none" xmlns="http://www.w3.org/2000/svg">
<path d="M35.769 69.8345C54.583 69.8345 69.8347 54.5828 69.8347 35.7688C69.8347 16.9549 54.583 1.70312 35.769 1.70312C16.955 1.70312 1.70331 16.9549 1.70331 35.7688C1.70331 54.5828 16.955 69.8345 35.769 69.8345Z" fill="#151919"/>
<path d="M34.0657 66.4279C51.939 66.4279 66.4281 51.9388 66.4281 34.0655C66.4281 16.1923 51.939 1.70312 34.0657 1.70312C16.1925 1.70312 1.70331 16.1923 1.70331 34.0655C1.70331 51.9388 16.1925 66.4279 34.0657 66.4279Z" fill="#6AC387" stroke="#151919" stroke-width="3.40657"/>
<path d="M32.3624 47.6914H35.7689" stroke="#151919" stroke-width="3.40657" stroke-linecap="round" stroke-linejoin="round"/>
<path d="M20.4393 42.5815H47.6918" stroke="#151919" stroke-width="3.40657" stroke-linecap="round" stroke-linejoin="round"/>
<path d="M41.7306 42.5822C42.2245 42.5822 42.7015 42.3693 43.0251 41.9861C43.3487 41.6113 43.4935 41.1089 43.4168 40.6234L41.6199 28.6408C41.0578 24.9021 37.8471 22.1343 34.0658 22.1343C30.2845 22.1343 27.0738 24.9021 26.5117 28.6408L24.7148 40.6234C24.6381 41.1174 24.7829 41.6113 25.1065 41.9861C25.4302 42.3608 25.8986 42.5822 26.401 42.5822H41.7306Z" fill="white" stroke="#151919" stroke-width="3.40657" stroke-linejoin="round"/>
<path d="M31.511 18.736C31.511 17.7992 32.2775 17.0327 33.2143 17.0327H34.9176C35.8544 17.0327 36.6209 17.7992 36.6209 18.736V20.4393C36.6209 21.3761 35.8544 22.1426 34.9176 22.1426H33.2143C32.2775 22.1426 31.511 21.3761 31.511 20.4393V18.736Z" fill="#151919"/>
</svg>
