<svg width="70" height="70" viewBox="0 0 70 70" fill="none" xmlns="http://www.w3.org/2000/svg">
<path d="M35.769 69.8345C54.5829 69.8345 69.8347 54.5828 69.8347 35.7688C69.8347 16.9549 54.5829 1.70312 35.769 1.70312C16.955 1.70312 1.70328 16.9549 1.70328 35.7688C1.70328 54.5828 16.955 69.8345 35.769 69.8345Z" fill="#151919"/>
<path d="M34.0657 66.4279C51.9389 66.4279 66.4281 51.9388 66.4281 34.0655C66.4281 16.1923 51.9389 1.70312 34.0657 1.70312C16.1924 1.70312 1.70328 16.1923 1.70328 34.0655C1.70328 51.9388 16.1924 66.4279 34.0657 66.4279Z" fill="#6AC387" stroke="#151919" stroke-width="3.40657"/>
<path d="M48.9868 19.6384C49.4978 19.5106 50.0343 19.6299 50.4516 19.945C50.8604 20.2686 51.1074 20.7625 51.1074 21.2906V45.1365C51.1074 45.92 50.5794 46.6014 49.8129 46.7887L36.1866 50.1953C35.6756 50.323 35.1391 50.2038 34.7218 49.8887C34.313 49.5651 34.066 49.0711 34.066 48.5431V24.6971C34.066 23.9136 34.594 23.2323 35.3605 23.0449L48.9868 19.6384Z" fill="white" stroke="#151919" stroke-width="3.40657" stroke-linejoin="round"/>
<path d="M19.1455 19.6384C18.6346 19.5106 18.098 19.6299 17.6807 19.945C17.2719 20.2686 17.025 20.7625 17.025 21.2906V45.1365C17.025 45.92 17.553 46.6014 18.3195 46.7887L31.9457 50.1953C32.4567 50.323 32.9932 50.2038 33.4106 49.8887C33.8193 49.5651 34.0663 49.0711 34.0663 48.5431V24.6971C34.0663 23.9136 33.5383 23.2323 32.7718 23.0449L19.1455 19.6384Z" fill="white" stroke="#151919" stroke-width="3.40657" stroke-linejoin="round"/>
</svg>
