<svg width="70" height="70" viewBox="0 0 70 70" fill="none" xmlns="http://www.w3.org/2000/svg">
<path d="M35.769 69.8345C54.5829 69.8345 69.8347 54.5828 69.8347 35.7688C69.8347 16.9549 54.5829 1.70312 35.769 1.70312C16.955 1.70312 1.70328 16.9549 1.70328 35.7688C1.70328 54.5828 16.955 69.8345 35.769 69.8345Z" fill="#151919"/>
<path d="M34.0657 66.4279C51.9389 66.4279 66.4281 51.9388 66.4281 34.0655C66.4281 16.1923 51.9389 1.70312 34.0657 1.70312C16.1924 1.70312 1.70328 16.1923 1.70328 34.0655C1.70328 51.9388 16.1924 66.4279 34.0657 66.4279Z" fill="#6AC387" stroke="#151919" stroke-width="3.40657"/>
<path d="M19.588 26.4012C19.588 24.5191 21.1124 22.9946 22.9945 22.9946H45.1372C47.0194 22.9946 48.5438 24.5191 48.5438 26.4012V43.434C48.5438 45.3162 47.0194 46.8406 45.1372 46.8406H22.9945C21.1124 46.8406 19.588 45.3162 19.588 43.434V26.4012Z" fill="white" stroke="#151919" stroke-width="3.40657"/>
<path d="M28.1043 19.5879V22.9945" stroke="#151919" stroke-width="3.40657" stroke-linecap="round" stroke-linejoin="round"/>
<path d="M40.0275 19.5879V22.9945" stroke="#151919" stroke-width="3.40657" stroke-linecap="round" stroke-linejoin="round"/>
<path d="M27.2529 33.2143C28.6639 33.2143 29.8078 32.0705 29.8078 30.6594C29.8078 29.2484 28.6639 28.1045 27.2529 28.1045C25.8418 28.1045 24.6979 29.2484 24.6979 30.6594C24.6979 32.0705 25.8418 33.2143 27.2529 33.2143Z" fill="#151919"/>
<path d="M27.2529 41.7309C28.6639 41.7309 29.8078 40.5871 29.8078 39.176C29.8078 37.765 28.6639 36.6211 27.2529 36.6211C25.8418 36.6211 24.6979 37.765 24.6979 39.176C24.6979 40.5871 25.8418 41.7309 27.2529 41.7309Z" fill="#151919"/>
<path d="M34.066 33.2143C35.4771 33.2143 36.621 32.0705 36.621 30.6594C36.621 29.2484 35.4771 28.1045 34.066 28.1045C32.655 28.1045 31.5111 29.2484 31.5111 30.6594C31.5111 32.0705 32.655 33.2143 34.066 33.2143Z" fill="#151919"/>
<path d="M34.066 41.7309C35.4771 41.7309 36.621 40.5871 36.621 39.176C36.621 37.765 35.4771 36.6211 34.066 36.6211C32.655 36.6211 31.5111 37.765 31.5111 39.176C31.5111 40.5871 32.655 41.7309 34.066 41.7309Z" fill="#151919"/>
<path d="M40.8792 33.2143C42.2903 33.2143 43.4341 32.0705 43.4341 30.6594C43.4341 29.2484 42.2903 28.1045 40.8792 28.1045C39.4682 28.1045 38.3243 29.2484 38.3243 30.6594C38.3243 32.0705 39.4682 33.2143 40.8792 33.2143Z" fill="#151919"/>
</svg>
