<svg width="70" height="70" viewBox="0 0 70 70" fill="none" xmlns="http://www.w3.org/2000/svg">
<path d="M35.7689 69.8345C54.5829 69.8345 69.8346 54.5828 69.8346 35.7688C69.8346 16.9549 54.5829 1.70312 35.7689 1.70312C16.955 1.70312 1.70325 16.9549 1.70325 35.7688C1.70325 54.5828 16.955 69.8345 35.7689 69.8345Z" fill="#151919"/>
<path d="M34.0657 66.4279C51.9389 66.4279 66.4281 51.9388 66.4281 34.0655C66.4281 16.1923 51.9389 1.70312 34.0657 1.70312C16.1924 1.70312 1.70325 16.1923 1.70325 34.0655C1.70325 51.9388 16.1924 66.4279 34.0657 66.4279Z" fill="#6AC387" stroke="#151919" stroke-width="3.40657"/>
<path d="M48.5434 24.6973L31.5106 41.7301L21.2909 33.2137" stroke="#151919" stroke-width="3.40657" stroke-linecap="round" stroke-linejoin="round"/>
</svg>
