<svg width="70" height="70" viewBox="0 0 70 70" fill="none" xmlns="http://www.w3.org/2000/svg">
<path d="M35.769 69.8345C54.5829 69.8345 69.8347 54.5828 69.8347 35.7688C69.8347 16.9549 54.5829 1.70312 35.769 1.70312C16.955 1.70312 1.70328 16.9549 1.70328 35.7688C1.70328 54.5828 16.955 69.8345 35.769 69.8345Z" fill="#151919"/>
<path d="M34.0657 66.4279C51.9389 66.4279 66.4281 51.9388 66.4281 34.0655C66.4281 16.1923 51.9389 1.70312 34.0657 1.70312C16.1924 1.70312 1.70328 16.1923 1.70328 34.0655C1.70328 51.9388 16.1924 66.4279 34.0657 66.4279Z" fill="#6AC387" stroke="#151919" stroke-width="3.40657"/>
<path d="M25.2939 30.7527C29.1689 26.0261 31.1107 20.5244 31.1107 17.0327C36.5016 21.2228 39.5164 30.2843 39.84 34.0656C42.148 34.0656 43.7234 31.0848 44.6858 29.3304C49.5061 46.7976 39.84 51.0984 33.623 51.0984C23.3522 50.6215 18.4978 39.0392 25.2939 30.7527Z" stroke="#151919" stroke-width="3.40657" stroke-linecap="round" stroke-linejoin="round"/>
<path d="M33.4354 51.0983C24.3654 49.5909 28.7514 37.6253 32.7967 34.0654C32.7967 40.2995 37.4722 40.4102 37.4722 45.7585C37.4722 48.1005 36.067 50.6043 33.4354 51.0983Z" fill="white" stroke="#151919" stroke-width="3.40657" stroke-linecap="round" stroke-linejoin="round"/>
</svg>
