<svg width="70" height="70" viewBox="0 0 70 70" fill="none" xmlns="http://www.w3.org/2000/svg">
<path d="M35.769 69.8345C54.583 69.8345 69.8347 54.5828 69.8347 35.7688C69.8347 16.9549 54.583 1.70312 35.769 1.70312C16.955 1.70312 1.70331 16.9549 1.70331 35.7688C1.70331 54.5828 16.955 69.8345 35.769 69.8345Z" fill="#151919"/>
<path d="M34.0657 66.4279C51.939 66.4279 66.4281 51.9388 66.4281 34.0655C66.4281 16.1923 51.939 1.70312 34.0657 1.70312C16.1925 1.70312 1.70331 16.1923 1.70331 34.0655C1.70331 51.9388 16.1925 66.4279 34.0657 66.4279Z" fill="#6AC387" stroke="#151919" stroke-width="3.40657"/>
<path d="M20.4396 25.5488C19.5027 25.5488 18.7363 26.3153 18.7363 27.2521V44.285C18.7363 46.1671 20.2607 47.6915 22.1428 47.6915H47.6921C49.5742 47.6915 51.0987 46.1671 51.0987 44.285V28.9554C51.0987 27.0733 49.5742 25.5488 47.6921 25.5488H20.4396Z" fill="white" stroke="#151919" stroke-width="3.40657" stroke-linejoin="round"/>
<path d="M17.0331 22.1422C17.0331 21.2054 17.7996 20.439 18.7364 20.439H28.9561C29.8929 20.439 30.6594 21.2054 30.6594 22.1422V27.2521H17.0331V22.1422Z" fill="#151919"/>
</svg>
