<svg width="70" height="70" viewBox="0 0 70 70" fill="none" xmlns="http://www.w3.org/2000/svg">
<path d="M35.769 69.8345C54.5829 69.8345 69.8347 54.5828 69.8347 35.7688C69.8347 16.9549 54.5829 1.70312 35.769 1.70312C16.955 1.70312 1.70329 16.9549 1.70329 35.7688C1.70329 54.5828 16.955 69.8345 35.769 69.8345Z" fill="#151919"/>
<path d="M34.0657 66.4279C51.939 66.4279 66.4281 51.9388 66.4281 34.0655C66.4281 16.1923 51.939 1.70312 34.0657 1.70312C16.1924 1.70312 1.70329 16.1923 1.70329 34.0655C1.70329 51.9388 16.1924 66.4279 34.0657 66.4279Z" fill="#6AC387" stroke="#151919" stroke-width="3.40657"/>
<path d="M34.0652 50.2472C43.0019 50.2472 50.2464 43.0026 50.2464 34.066C50.2464 25.1293 43.0019 17.8848 34.0652 17.8848C25.1286 17.8848 17.884 25.1293 17.884 34.066C17.884 43.0026 25.1286 50.2472 34.0652 50.2472Z" fill="white" stroke="#151919" stroke-width="3.40657" stroke-linecap="round" stroke-linejoin="round"/>
<path d="M29.8071 32.3628C31.2181 32.3628 32.362 31.2189 32.362 29.8079C32.362 28.3968 31.2181 27.2529 29.8071 27.2529C28.3961 27.2529 27.2522 28.3968 27.2522 29.8079C27.2522 31.2189 28.3961 32.3628 29.8071 32.3628Z" fill="#151919"/>
<path d="M38.3234 32.3628C39.7345 32.3628 40.8784 31.2189 40.8784 29.8079C40.8784 28.3968 39.7345 27.2529 38.3234 27.2529C36.9124 27.2529 35.7685 28.3968 35.7685 29.8079C35.7685 31.2189 36.9124 32.3628 38.3234 32.3628Z" fill="#151919"/>
<path d="M27.2522 37.4722C29.2365 40.3081 34.7466 44.2853 40.8785 37.4722" stroke="#151919" stroke-width="3.40657" stroke-linecap="round" stroke-linejoin="round"/>
</svg>
