<svg width="70" height="70" viewBox="0 0 70 70" fill="none" xmlns="http://www.w3.org/2000/svg">
<path d="M35.769 69.8345C54.5829 69.8345 69.8347 54.5828 69.8347 35.7688C69.8347 16.9549 54.5829 1.70312 35.769 1.70312C16.955 1.70312 1.70329 16.9549 1.70329 35.7688C1.70329 54.5828 16.955 69.8345 35.769 69.8345Z" fill="#151919"/>
<path d="M34.0657 66.4279C51.939 66.4279 66.4281 51.9388 66.4281 34.0655C66.4281 16.1923 51.939 1.70312 34.0657 1.70312C16.1924 1.70312 1.70329 16.1923 1.70329 34.0655C1.70329 51.9388 16.1924 66.4279 34.0657 66.4279Z" fill="#6AC387" stroke="#151919" stroke-width="3.40657"/>
<path d="M16.1814 34.0654C16.1814 28.419 20.7547 23.8457 26.4011 23.8457H41.7307C47.3771 23.8457 51.9504 28.419 51.9504 34.0654C51.9504 39.7118 47.3771 44.2851 41.7307 44.2851H26.4011C20.7547 44.2851 16.1814 39.7118 16.1814 34.0654Z" fill="white" stroke="#151919" stroke-width="3.40657"/>
<path d="M41.7303 39.1753C44.5524 39.1753 46.8402 36.8875 46.8402 34.0654C46.8402 31.2433 44.5524 28.9556 41.7303 28.9556C38.9082 28.9556 36.6204 31.2433 36.6204 34.0654C36.6204 36.8875 38.9082 39.1753 41.7303 39.1753Z" fill="#151919"/>
</svg>
