<svg width="70" height="70" viewBox="0 0 70 70" fill="none" xmlns="http://www.w3.org/2000/svg">
<path d="M35.769 69.8345C54.583 69.8345 69.8347 54.5828 69.8347 35.7688C69.8347 16.9549 54.583 1.70312 35.769 1.70312C16.955 1.70312 1.70331 16.9549 1.70331 35.7688C1.70331 54.5828 16.955 69.8345 35.769 69.8345Z" fill="#151919"/>
<path d="M34.0657 66.4279C51.939 66.4279 66.4281 51.9388 66.4281 34.0655C66.4281 16.1923 51.939 1.70312 34.0657 1.70312C16.1925 1.70312 1.70331 16.1923 1.70331 34.0655C1.70331 51.9388 16.1925 66.4279 34.0657 66.4279Z" fill="#6AC387" stroke="#151919" stroke-width="3.40657"/>
<path d="M18.7365 22.9946H35.7693" stroke="#151919" stroke-width="3.40657" stroke-linecap="round" stroke-linejoin="round"/>
<path d="M32.3623 34.0659H49.3952" stroke="#151919" stroke-width="3.40657" stroke-linecap="round" stroke-linejoin="round"/>
<path d="M18.7365 34.0659H22.143" stroke="#151919" stroke-width="3.40657" stroke-linecap="round" stroke-linejoin="round"/>
<path d="M45.9886 22.9946H49.3952" stroke="#151919" stroke-width="3.40657" stroke-linecap="round" stroke-linejoin="round"/>
<path d="M45.9886 45.1372H49.3952" stroke="#151919" stroke-width="3.40657" stroke-linecap="round" stroke-linejoin="round"/>
<path d="M18.7365 45.1372H35.7693" stroke="#151919" stroke-width="3.40657" stroke-linecap="round" stroke-linejoin="round"/>
<path d="M28.1042 38.324C30.4559 38.324 32.3624 36.4176 32.3624 34.0658C32.3624 31.7141 30.4559 29.8076 28.1042 29.8076C25.7524 29.8076 23.8459 31.7141 23.8459 34.0658C23.8459 36.4176 25.7524 38.324 28.1042 38.324Z" fill="white" stroke="#151919" stroke-width="3.40657"/>
<path d="M40.0273 27.2528C42.3791 27.2528 44.2855 25.3463 44.2855 22.9945C44.2855 20.6428 42.3791 18.7363 40.0273 18.7363C37.6756 18.7363 35.7691 20.6428 35.7691 22.9945C35.7691 25.3463 37.6756 27.2528 40.0273 27.2528Z" fill="white" stroke="#151919" stroke-width="3.40657"/>
<path d="M40.0273 49.3948C42.3791 49.3948 44.2855 47.4884 44.2855 45.1366C44.2855 42.7849 42.3791 40.8784 40.0273 40.8784C37.6756 40.8784 35.7691 42.7849 35.7691 45.1366C35.7691 47.4884 37.6756 49.3948 40.0273 49.3948Z" fill="white" stroke="#151919" stroke-width="3.40657"/>
</svg>
