<svg width="70" height="70" viewBox="0 0 70 70" fill="none" xmlns="http://www.w3.org/2000/svg">
<path d="M35.769 69.8345C54.5829 69.8345 69.8347 54.5828 69.8347 35.7688C69.8347 16.9549 54.5829 1.70312 35.769 1.70312C16.955 1.70312 1.70328 16.9549 1.70328 35.7688C1.70328 54.5828 16.955 69.8345 35.769 69.8345Z" fill="#151919"/>
<path d="M34.0657 66.4279C51.9389 66.4279 66.4281 51.9388 66.4281 34.0655C66.4281 16.1923 51.9389 1.70312 34.0657 1.70312C16.1924 1.70312 1.70328 16.1923 1.70328 34.0655C1.70328 51.9388 16.1924 66.4279 34.0657 66.4279Z" fill="#6AC387" stroke="#151919" stroke-width="3.40657"/>
<path d="M14.8276 36.2426C14.1463 35.9956 13.6949 35.3399 13.7034 34.6075C13.7204 33.8751 14.1973 33.2363 14.8872 33.0234L48.4252 17.7832C49.0469 17.5873 49.7197 17.7577 50.1711 18.2261C50.6225 18.6945 50.7672 19.3758 50.5458 19.989L33.2656 52.6453C33.0101 53.3436 32.3373 53.795 31.5964 53.7694C30.8555 53.7354 30.2167 53.2329 30.0209 52.5175L26.7676 40.5945L14.819 36.2511L14.8276 36.2426Z" fill="white" stroke="#151919" stroke-width="3.40657" stroke-linecap="round" stroke-linejoin="round"/>
<path d="M50.1711 18.2261L26.7676 40.5945" stroke="#151919" stroke-width="3.41"/>
</svg>
