<svg width="70" height="70" viewBox="0 0 70 70" fill="none" xmlns="http://www.w3.org/2000/svg">
<path d="M35.769 69.8345C54.583 69.8345 69.8347 54.5828 69.8347 35.7688C69.8347 16.9549 54.583 1.70312 35.769 1.70312C16.955 1.70312 1.70331 16.9549 1.70331 35.7688C1.70331 54.5828 16.955 69.8345 35.769 69.8345Z" fill="#151919"/>
<path d="M34.0657 66.4279C51.939 66.4279 66.4281 51.9388 66.4281 34.0655C66.4281 16.1923 51.939 1.70312 34.0657 1.70312C16.1925 1.70312 1.70331 16.1923 1.70331 34.0655C1.70331 51.9388 16.1925 66.4279 34.0657 66.4279Z" fill="#6AC387" stroke="#151919" stroke-width="3.40657"/>
<path d="M45.9121 31.5103C47.8113 38.7237 43.6041 46.1415 36.5185 48.0832C32.9586 49.0541 29.3561 48.4579 26.4009 46.7121M42.548 35.0616L45.9121 31.5188L49.3953 34.9424" stroke="#151919" stroke-width="3.40657" stroke-linecap="round" stroke-linejoin="round"/>
<path d="M22.2196 36.6206C20.3205 29.4072 24.5276 21.9894 31.6133 20.0562C35.1731 19.0853 38.7756 19.6815 41.7308 21.4273M22.2196 36.6206L25.5837 33.0778M22.2196 36.6206L18.7365 33.197" stroke="#151919" stroke-width="3.40657" stroke-linecap="round" stroke-linejoin="round"/>
</svg>
