<svg width="70" height="70" viewBox="0 0 70 70" fill="none" xmlns="http://www.w3.org/2000/svg">
<path d="M35.769 69.8345C54.583 69.8345 69.8347 54.5828 69.8347 35.7688C69.8347 16.9549 54.583 1.70312 35.769 1.70312C16.955 1.70312 1.70331 16.9549 1.70331 35.7688C1.70331 54.5828 16.955 69.8345 35.769 69.8345Z" fill="#151919"/>
<path d="M34.0657 66.4279C51.939 66.4279 66.4281 51.9388 66.4281 34.0655C66.4281 16.1923 51.939 1.70312 34.0657 1.70312C16.1925 1.70312 1.70331 16.1923 1.70331 34.0655C1.70331 51.9388 16.1925 66.4279 34.0657 66.4279Z" fill="#6AC387" stroke="#151919" stroke-width="3.40657"/>
<path d="M48.7821 24.3224L36.3309 17.126L36.0841 21.1372L30.6932 30.4797C26.6819 30.2413 23.3264 32.4555 20.6267 37.1225L39.3117 47.9128C42.0114 43.2458 42.2499 39.2261 40.0357 35.8706L45.4266 26.5281L48.7821 24.3138V24.3224Z" fill="white" stroke="#151919" stroke-width="3.40657" stroke-linecap="round" stroke-linejoin="round"/>
<path d="M29.9688 42.5225L28.172 45.6395L26.3749 48.7565" stroke="#151919" stroke-width="3.40657" stroke-linecap="round" stroke-linejoin="round"/>
</svg>
