<svg width="70" height="70" viewBox="0 0 70 70" fill="none" xmlns="http://www.w3.org/2000/svg">
<path d="M35.7689 69.8345C54.5829 69.8345 69.8346 54.5828 69.8346 35.7688C69.8346 16.9549 54.5829 1.70312 35.7689 1.70312C16.955 1.70312 1.70325 16.9549 1.70325 35.7688C1.70325 54.5828 16.955 69.8345 35.7689 69.8345Z" fill="#151919"/>
<path d="M34.0657 66.4279C51.9389 66.4279 66.4281 51.9388 66.4281 34.0655C66.4281 16.1923 51.9389 1.70312 34.0657 1.70312C16.1924 1.70312 1.70325 16.1923 1.70325 34.0655C1.70325 51.9388 16.1924 66.4279 34.0657 66.4279Z" fill="#6AC387" stroke="#151919" stroke-width="3.40657"/>
<path d="M22.1684 49.3955C21.8874 44.5666 23.8717 34.7472 34.0659 34.0659C23.8717 33.3846 21.8874 23.5651 22.1684 18.7363H45.9633C46.2443 23.5651 44.26 33.3846 34.0659 34.0659C44.26 34.7472 46.2443 44.5666 45.9633 49.3955H22.1684Z" fill="white"/>
<path d="M34.0659 34.0659C23.8717 34.7472 21.8874 44.5666 22.1684 49.3955H45.9633C46.2443 44.5666 44.26 34.7472 34.0659 34.0659ZM34.0659 34.0659C44.26 33.3846 46.2443 23.5651 45.9633 18.7363H22.1684C21.8874 23.5651 23.8717 33.3846 34.0659 34.0659Z" stroke="#151919" stroke-width="3.40657" stroke-linecap="round" stroke-linejoin="round"/>
<path d="M40.879 22.9946H27.2527C27.6274 25.2685 29.5266 29.8078 34.0658 29.8078C38.6051 29.8078 40.5042 25.2685 40.879 22.9946Z" fill="#151919"/>
</svg>
