<svg width="115" height="92" viewBox="0 0 115 92" fill="none" xmlns="http://www.w3.org/2000/svg">
<g clip-path="url(#clip0_1_759)">
<path d="M75.838 5.85266H58.5539C57.3197 5.85266 56.3191 4.87307 56.3191 3.66475C56.3191 1.78514 54.7497 0.248627 52.8298 0.248627H38.512C36.5921 0.248627 35.0226 1.78514 35.0226 3.66475V46.3986C35.0226 48.9445 37.1508 51.023 39.7462 51.023H75.8329C78.4334 51.023 80.5564 48.9395 80.5564 46.3986V10.4771C80.5564 7.93117 78.4283 5.85266 75.8329 5.85266H75.838Z" fill="#151919" stroke="#DBEF00" stroke-miterlimit="10"/>
<path d="M79.0225 10.8401H35.9775C33.3688 10.8401 31.254 12.9105 31.254 15.4645V52.122C31.254 54.676 33.3688 56.7464 35.9775 56.7464H79.0225C81.6313 56.7464 83.7461 54.676 83.7461 52.122V15.4645C83.7461 12.9105 81.6313 10.8401 79.0225 10.8401Z" fill="#151919" stroke="#DBEF00" stroke-miterlimit="10"/>
</g>
<path d="M21.6354 67H22.1354V67.5H22.6354V68H23.1354V68.5H23.6354V69H24.1354V69.5H24.6354V67H25.6354V72H25.1354V71.5H24.6354V71H24.1354V70.5H23.6354V70H23.1354V69.5H22.6354V72H21.6354V67ZM26.4373 67H30.4373V68H27.4373V69H29.9373V70H27.4373V71H30.4373V72H26.4373V67ZM31.2393 67H32.2393V71H32.7393V69H33.7393V71H34.2393V67H35.2393V71.5H34.7393V72H33.7393V71.5H32.7393V72H31.7393V71.5H31.2393V67ZM36.0412 71H40.0412V72H36.0412V71ZM40.8432 67H44.8432V68H41.8432V69H44.3432V70H41.8432V72H40.8432V67ZM46.6451 67H48.6451V68H48.1451V71H48.6451V72H46.6451V71H47.1451V68H46.6451V67ZM50.4471 67H50.9471V67.5H51.4471V68H51.9471V68.5H52.4471V69H52.9471V69.5H53.4471V67H54.4471V72H53.9471V71.5H53.4471V71H52.9471V70.5H52.4471V70H51.9471V69.5H51.4471V72H50.4471V67ZM55.249 67.5H55.749V67H58.749V67.5H59.249V72H58.249V70H56.249V72H55.249V67.5ZM56.249 69H58.249V68H56.249V69ZM60.051 67H61.051V71H63.051V70.5H64.051V72H60.051V67ZM64.8529 71H68.8529V72H64.8529V71ZM69.6549 67H73.6549V68H70.6549V69H73.1549V70H70.6549V72H69.6549V67ZM75.4568 67H77.4568V68H76.9568V71H77.4568V72H75.4568V71H75.9568V68H75.4568V67ZM79.2588 67H79.7588V67.5H80.2588V68H80.7588V68.5H81.2588V69H81.7588V69.5H82.2588V67H83.2588V72H82.7588V71.5H82.2588V71H81.7588V70.5H81.2588V70H80.7588V69.5H80.2588V72H79.2588V67ZM84.0607 67.5H84.5607V67H87.5607V67.5H88.0607V72H87.0607V70H85.0607V72H84.0607V67.5ZM85.0607 69H87.0607V68H85.0607V69ZM88.8627 67H89.8627V71H91.8627V70.5H92.8627V72H88.8627V67ZM23.1354 81H24.1354V82H23.1354V81ZM26.4373 77H27.4373V79H29.4373V77H30.4373V82H29.4373V80H26.4373V77ZM31.2393 77H34.7393V77.5H35.2393V79.5H34.7393V80H33.7393V80.5H34.2393V81H34.7393V81.5H35.2393V82H33.7393V81.5H33.2393V81H32.7393V80.5H32.2393V82H31.2393V77ZM32.2393 79H34.2393V78H32.2393V79ZM36.0412 77H40.0412V78H37.0412V79H39.5412V80H37.0412V81H40.0412V82H36.0412V77ZM40.8432 77.5H41.3432V77H44.3432V77.5H44.8432V82H43.8432V80H41.8432V82H40.8432V77.5ZM41.8432 79H43.8432V78H41.8432V79ZM45.6451 77H46.6451V81H48.6451V80.5H49.6451V82H45.6451V77ZM50.4471 77H54.4471V78H52.9471V82H51.9471V78H50.4471V77ZM55.249 77H56.249V79H58.249V77H59.249V82H58.249V80H56.249V82H55.249V77ZM61.051 77H63.051V78H62.551V81H63.051V82H61.051V81H61.551V78H61.051V77ZM64.8529 77.5H65.3529V77H68.3529V77.5H68.8529V78.5H67.8529V78H65.8529V79H68.3529V79.5H68.8529V81.5H68.3529V82H65.3529V81.5H64.8529V80.5H65.8529V81H67.8529V80H65.3529V79.5H64.8529V77.5ZM69.6549 77H73.6549V78H72.1549V82H71.1549V78H69.6549V77ZM75.4568 77H77.4568V78H76.9568V81H77.4568V82H75.4568V81H75.9568V78H75.4568V77ZM79.2588 77H79.7588V77.5H80.2588V78H80.7588V78.5H81.7588V78H82.2588V77.5H82.7588V77H83.2588V82H82.2588V79.5H81.7588V80.5H80.7588V79.5H80.2588V82H79.2588V77ZM84.0607 77H88.0607V78H85.0607V79H87.5607V80H85.0607V81H88.0607V82H84.0607V77ZM90.3627 81H91.3627V82H90.3627V81ZM50.4471 87H50.9471V87.5H51.4471V88H51.9471V88.5H52.9471V88H53.4471V87.5H53.9471V87H54.4471V92H53.4471V89.5H52.9471V90.5H51.9471V89.5H51.4471V92H50.4471V87ZM55.249 87H58.749V87.5H59.249V89.5H58.749V90H56.249V92H55.249V87ZM56.249 89H58.249V88H56.249V89ZM60.051 87H61.051V89H63.051V87H64.051V92H63.051V90H60.051V87Z" fill="white"/>
<defs>
<clipPath id="clip0_1_759">
<rect width="53" height="57" fill="white" transform="translate(31)"/>
</clipPath>
</defs>
</svg>
