<svg width="115" height="72" viewBox="0 0 115 72" fill="none" xmlns="http://www.w3.org/2000/svg">
<g clip-path="url(#clip0_1_754)">
<path d="M75.838 5.85266H58.5539C57.3197 5.85266 56.3191 4.87307 56.3191 3.66475C56.3191 1.78514 54.7497 0.248627 52.8298 0.248627H38.512C36.5921 0.248627 35.0226 1.78514 35.0226 3.66475V46.3986C35.0226 48.9445 37.1508 51.023 39.7462 51.023H75.8329C78.4334 51.023 80.5564 48.9395 80.5564 46.3986V10.4771C80.5564 7.93117 78.4283 5.85266 75.8329 5.85266H75.838Z" fill="#151919" stroke="#DBEF00" stroke-miterlimit="10"/>
<path d="M79.0225 10.8401H35.9775C33.3688 10.8401 31.254 12.9105 31.254 15.4645V52.122C31.254 54.676 33.3688 56.7464 35.9775 56.7464H79.0225C81.6313 56.7464 83.7461 54.676 83.7461 52.122V15.4645C83.7461 12.9105 81.6313 10.8401 79.0225 10.8401Z" fill="#151919" stroke="#DBEF00" stroke-miterlimit="10"/>
</g>
<path d="M26.4373 67H26.9373V67.5H27.4373V68H27.9373V68.5H28.4373V69H28.9373V69.5H29.4373V67H30.4373V72H29.9373V71.5H29.4373V71H28.9373V70.5H28.4373V70H27.9373V69.5H27.4373V72H26.4373V67ZM31.2393 67H35.2393V68H32.2393V69H34.7393V70H32.2393V71H35.2393V72H31.2393V67ZM36.0412 67H37.0412V71H37.5412V69H38.5412V71H39.0412V67H40.0412V71.5H39.5412V72H38.5412V71.5H37.5412V72H36.5412V71.5H36.0412V67ZM40.8432 71H44.8432V72H40.8432V71ZM45.6451 67H49.6451V68H46.6451V69H49.1451V70H46.6451V72H45.6451V67ZM51.4471 67H53.4471V68H52.9471V71H53.4471V72H51.4471V71H51.9471V68H51.4471V67ZM55.249 67H55.749V67.5H56.249V68H56.749V68.5H57.249V69H57.749V69.5H58.249V67H59.249V72H58.749V71.5H58.249V71H57.749V70.5H57.249V70H56.749V69.5H56.249V72H55.249V67ZM60.051 67.5H60.551V67H63.551V67.5H64.051V72H63.051V70H61.051V72H60.051V67.5ZM61.051 69H63.051V68H61.051V69ZM64.8529 67H65.8529V71H67.8529V70.5H68.8529V72H64.8529V67ZM71.1549 71H72.1549V72H71.1549V71ZM74.4568 67H74.9568V67.5H75.4568V68H75.9568V68.5H76.9568V68H77.4568V67.5H77.9568V67H78.4568V72H77.4568V69.5H76.9568V70.5H75.9568V69.5H75.4568V72H74.4568V67ZM79.2588 67H82.7588V67.5H83.2588V69.5H82.7588V70H80.2588V72H79.2588V67ZM80.2588 69H82.2588V68H80.2588V69ZM84.0607 67H85.0607V69H87.0607V67H88.0607V72H87.0607V70H84.0607V67Z" fill="white"/>
<defs>
<clipPath id="clip0_1_754">
<rect width="53" height="57" fill="white" transform="translate(31)"/>
</clipPath>
</defs>
</svg>
